<?xml version="1.0" encoding="UTF-8"?>
<svg id="Layer_2" data-name="Layer 2" xmlns="http://www.w3.org/2000/svg" xmlns:xlink="http://www.w3.org/1999/xlink" viewBox="0 0 1159.3 426.23">
  <defs>
    <style>
      .cls-1 {
        fill: none;
      }

      .cls-2 {
        fill: url(#linear-gradient-2);
      }

      .cls-3 {
        fill: url(#linear-gradient);
      }

      .cls-4 {
        clip-path: url(#clippath-1);
      }

      .cls-5 {
        fill: #fff;
      }

      .cls-6 {
        clip-path: url(#clippath);
      }
    </style>
    <clipPath id="clippath">
      <path class="cls-1" d="M0,249.76h31.39l1.52,33.42v143.05H0v-176.47ZM91.65,378.63c-11.14,0-20.63-1.99-28.48-5.95s-14.22-9.2-19.12-15.7c-4.9-6.5-8.52-13.63-10.89-21.39-2.37-7.76-3.54-15.36-3.54-22.79,0-9.28,1.14-17.89,3.42-25.82,2.28-7.93,5.86-14.89,10.76-20.89,4.89-5.99,11.27-10.67,19.11-14.05,7.85-3.38,17.43-5.06,28.74-5.06,12.66,0,24.05,2.79,34.18,8.36s18.19,13.29,24.18,23.17c5.99,9.87,8.99,21.31,8.99,34.31s-3.04,24.94-9.11,34.81c-6.08,9.87-14.18,17.51-24.3,22.91-10.13,5.4-21.44,8.1-33.93,8.1ZM81.02,353.06c8.94,0,16.75-1.68,23.42-5.06,6.67-3.37,11.81-8.06,15.44-14.05,3.63-5.99,5.44-13.04,5.44-21.14,0-12.15-3.84-21.94-11.52-29.37-7.68-7.42-18.61-11.14-32.79-11.14-8.95,0-17.09,1.61-24.43,4.81-7.34,3.21-13.13,7.81-17.34,13.8-4.22,5.99-6.33,13.29-6.33,21.9,0,8.1,1.94,15.15,5.82,21.14,3.88,5.99,9.45,10.68,16.71,14.05,7.26,3.38,15.78,5.06,25.57,5.06ZM183.3,249.76h32.91v125.83h-32.91v-125.83ZM264.57,276.85c-9.45,0-17.64,1.82-24.56,5.44-6.92,3.63-12.49,8.06-16.71,13.29-4.22,5.23-7.18,10.3-8.86,15.19l-.25-13.92c.17-2.03.84-5.02,2.03-8.99,1.18-3.96,2.95-8.27,5.32-12.91,2.36-4.64,5.48-9.11,9.37-13.42,3.88-4.3,8.61-7.81,14.18-10.51,5.57-2.7,12.07-4.05,19.49-4.05v29.88ZM359,378.63c-15.87,0-29.84-2.53-41.9-7.6-12.07-5.06-21.48-12.45-28.23-22.15-6.75-9.7-10.13-21.65-10.13-35.83s3.38-26.2,10.13-36.08c6.75-9.87,16.16-17.34,28.23-22.41,12.07-5.06,26.03-7.6,41.9-7.6s29.75,2.53,41.65,7.6,21.22,12.53,27.98,22.41c6.75,9.87,10.13,21.9,10.13,36.08s-3.38,26.12-10.13,35.83c-6.75,9.71-16.08,17.09-27.98,22.15-11.9,5.06-25.78,7.6-41.65,7.6ZM359,353.31c8.77,0,16.67-1.56,23.67-4.68,7-3.12,12.53-7.68,16.58-13.67,4.05-5.99,6.08-13.29,6.08-21.9s-2.03-15.99-6.08-22.15c-4.05-6.16-9.54-10.84-16.46-14.05-6.92-3.21-14.85-4.81-23.8-4.81s-16.71,1.61-23.8,4.81c-7.09,3.21-12.7,7.85-16.84,13.92-4.14,6.08-6.2,13.5-6.2,22.28s2.03,15.91,6.08,21.9c4.05,5.99,9.62,10.55,16.71,13.67,7.09,3.13,15.1,4.68,24.05,4.68ZM463.06,249.76h32.91v125.83h-32.91v-125.83ZM554.46,246.98c7.76,0,14.94,1.01,21.52,3.04,6.58,2.03,12.32,5.15,17.22,9.37,4.89,4.22,8.69,9.58,11.39,16.08,2.7,6.5,4.05,14.22,4.05,23.17v76.97h-32.91v-71.14c0-10.63-2.58-18.44-7.72-23.42-5.15-4.98-13.54-7.47-25.19-7.47-8.78,0-16.71,1.69-23.8,5.06-7.09,3.38-12.83,7.64-17.22,12.79-4.39,5.15-6.92,10.51-7.59,16.08l-.25-12.91c.84-5.91,2.79-11.65,5.82-17.22s7.13-10.67,12.28-15.32c5.15-4.64,11.27-8.31,18.36-11.01,7.09-2.7,15.1-4.05,24.05-4.05ZM664.08,246.98c7.76,0,14.94,1.01,21.52,3.04,6.58,2.03,12.32,5.15,17.22,9.37,4.89,4.22,8.73,9.58,11.52,16.08,2.79,6.5,4.18,14.22,4.18,23.17v76.97h-32.91v-71.14c0-10.63-2.62-18.44-7.85-23.42-5.23-4.98-13.67-7.47-25.32-7.47-8.78,0-16.71,1.69-23.8,5.06-7.09,3.38-12.83,7.64-17.22,12.79-4.39,5.15-6.84,10.51-7.34,16.08l-.51-13.67c.84-5.57,2.87-11.14,6.08-16.71,3.2-5.57,7.42-10.63,12.66-15.19,5.23-4.56,11.35-8.19,18.36-10.89,7-2.7,14.81-4.05,23.42-4.05ZM748.39,249.76h31.39l1.52,33.42v143.05h-32.91v-176.47ZM840.04,378.63c-11.14,0-20.63-1.99-28.48-5.95-7.85-3.96-14.22-9.2-19.11-15.7-4.9-6.5-8.53-13.63-10.89-21.39-2.37-7.76-3.54-15.36-3.54-22.79,0-9.28,1.14-17.89,3.42-25.82,2.28-7.93,5.86-14.89,10.76-20.89,4.89-5.99,11.27-10.67,19.12-14.05,7.85-3.38,17.43-5.06,28.74-5.06,12.66,0,24.05,2.79,34.18,8.36s18.19,13.29,24.18,23.17c5.99,9.87,8.99,21.31,8.99,34.31s-3.04,24.94-9.11,34.81c-6.08,9.87-14.18,17.51-24.3,22.91-10.13,5.4-21.44,8.1-33.93,8.1ZM829.41,353.06c8.94,0,16.75-1.68,23.42-5.06,6.67-3.37,11.81-8.06,15.44-14.05,3.63-5.99,5.44-13.04,5.44-21.14,0-12.15-3.84-21.94-11.52-29.37-7.68-7.42-18.61-11.14-32.79-11.14-8.95,0-17.09,1.61-24.43,4.81-7.34,3.21-13.13,7.81-17.34,13.8-4.22,5.99-6.33,13.29-6.33,21.9,0,8.1,1.94,15.15,5.82,21.14,3.88,5.99,9.45,10.68,16.71,14.05,7.25,3.38,15.78,5.06,25.57,5.06ZM922.83,249.76h97.73v25.57h-97.73v-25.57ZM955.24,215.33h32.91v160.26h-32.91v-160.26ZM1036.5,333.82h30.38c1.86,5.74,5.7,10.42,11.52,14.05,5.82,3.63,13.46,5.44,22.91,5.44,6.41,0,11.39-.59,14.94-1.77,3.54-1.18,5.99-2.91,7.34-5.19,1.35-2.28,2.03-4.85,2.03-7.72,0-3.55-1.1-6.29-3.29-8.23-2.2-1.94-5.57-3.5-10.13-4.68-4.56-1.18-10.38-2.28-17.47-3.29-7.09-1.18-13.92-2.61-20.51-4.3-6.58-1.69-12.41-3.92-17.47-6.71-5.06-2.79-9.08-6.33-12.03-10.63-2.96-4.3-4.43-9.58-4.43-15.82s1.48-11.48,4.43-16.2c2.95-4.72,7.09-8.69,12.41-11.9,5.32-3.2,11.56-5.65,18.74-7.34,7.17-1.69,14.89-2.53,23.17-2.53,12.49,0,22.87,1.82,31.14,5.44,8.27,3.63,14.47,8.7,18.61,15.19,4.13,6.5,6.2,13.97,6.2,22.41h-29.12c-1.35-6.24-4.05-10.76-8.1-13.54-4.05-2.79-10.3-4.18-18.74-4.18s-14.52,1.27-18.74,3.8c-4.22,2.53-6.33,5.99-6.33,10.38,0,3.54,1.31,6.29,3.92,8.23,2.62,1.94,6.5,3.5,11.65,4.68,5.15,1.18,11.6,2.45,19.37,3.8,6.58,1.35,12.87,2.87,18.86,4.56,5.99,1.69,11.35,3.84,16.08,6.46,4.72,2.62,8.48,6.08,11.27,10.38s4.18,9.75,4.18,16.33c0,8.1-2.32,14.94-6.96,20.51-4.64,5.57-11.27,9.83-19.87,12.79-8.61,2.95-18.91,4.43-30.89,4.43-10.63,0-19.79-1.14-27.47-3.42-7.68-2.28-14.05-5.23-19.12-8.86-5.06-3.63-8.99-7.51-11.77-11.65-2.78-4.13-4.68-8.06-5.7-11.77-1.01-3.71-1.35-6.75-1.01-9.11ZM414.16,311.86c0,31.19-25.28,56.47-56.47,56.47s-56.47-25.28-56.47-56.47,25.28-56.47,56.47-56.47,56.47,25.28,56.47,56.47Z"/>
    </clipPath>
    <linearGradient id="linear-gradient" x1="368.48" y1="705.19" x2="787.7" y2="-20.93" gradientUnits="userSpaceOnUse">
      <stop offset="0" stop-color="#5605bf"/>
      <stop offset="1" stop-color="#f20011"/>
    </linearGradient>
    <clipPath id="clippath-1">
      <path class="cls-1" d="M173.54,55.19h32.91v125.83h-32.91V55.19ZM264.94,52.41c7.76,0,14.94,1.01,21.52,3.04,6.58,2.03,12.32,5.15,17.22,9.37,4.89,4.22,8.69,9.58,11.39,16.08,2.7,6.5,4.05,14.22,4.05,23.17v76.97h-32.91v-71.14c0-10.63-2.58-18.44-7.72-23.42-5.15-4.98-13.54-7.47-25.19-7.47-8.78,0-16.71,1.69-23.8,5.06-7.09,3.38-12.83,7.64-17.22,12.79-4.39,5.15-6.92,10.51-7.6,16.08l-.25-12.91c.84-5.91,2.78-11.65,5.82-17.22,3.04-5.57,7.13-10.67,12.28-15.32,5.15-4.64,11.27-8.31,18.36-11.01,7.09-2.7,15.1-4.05,24.05-4.05ZM374.57,52.41c7.76,0,14.94,1.01,21.52,3.04,6.58,2.03,12.32,5.15,17.22,9.37,4.89,4.22,8.73,9.58,11.52,16.08,2.79,6.5,4.18,14.22,4.18,23.17v76.97h-32.91v-71.14c0-10.63-2.62-18.44-7.85-23.42-5.23-4.98-13.67-7.47-25.32-7.47-8.78,0-16.71,1.69-23.8,5.06-7.09,3.38-12.83,7.64-17.22,12.79-4.39,5.15-6.84,10.51-7.34,16.08l-.51-13.67c.84-5.57,2.87-11.14,6.08-16.71,3.2-5.57,7.42-10.63,12.66-15.19,5.23-4.56,11.35-8.19,18.36-10.89,7-2.7,14.81-4.05,23.42-4.05ZM520.14,183.81c-12.49,0-23.84-2.75-34.05-8.23-10.21-5.48-18.32-13.17-24.3-23.04-5.99-9.87-8.99-21.31-8.99-34.31s3.04-24.89,9.11-34.69c6.08-9.79,14.3-17.43,24.69-22.91,10.38-5.48,22.15-8.23,35.32-8.23,14.51,0,26.2,2.91,35.07,8.74s15.32,13.71,19.37,23.67c4.05,9.96,6.08,21.1,6.08,33.42,0,7.43-1.18,14.98-3.54,22.66-2.37,7.68-5.99,14.77-10.89,21.27-4.9,6.5-11.31,11.73-19.24,15.7-7.94,3.96-17.47,5.95-28.61,5.95ZM530.78,158.49c9.96,0,18.56-1.68,25.82-5.06,7.25-3.37,12.83-8.1,16.71-14.18,3.88-6.08,5.82-13.08,5.82-21.01,0-8.61-1.99-15.91-5.95-21.9-3.97-5.99-9.54-10.55-16.71-13.67-7.18-3.12-15.74-4.68-25.7-4.68-14.01,0-24.9,3.67-32.66,11.01-7.77,7.34-11.65,17.09-11.65,29.24,0,8.1,1.86,15.15,5.57,21.14,3.71,5.99,8.9,10.68,15.57,14.05,6.67,3.38,14.39,5.06,23.17,5.06ZM579.13,55.19h32.91v125.83h-30.63c-.85-6.58-1.44-12.41-1.77-17.47-.34-5.06-.51-10.04-.51-14.94V55.19ZM704.71,161.78c-13.67,0-25.7-2.07-36.08-6.2-10.38-4.13-18.44-10.25-24.18-18.36-5.74-8.1-8.61-17.89-8.61-29.37s2.79-21.1,8.36-29.37c5.57-8.27,13.54-14.68,23.92-19.24,10.38-4.56,22.57-6.84,36.58-6.84,3.88,0,7.63.25,11.27.76,3.63.51,7.22,1.18,10.76,2.03l63.55.25v24.81c-8.61.17-17.34-.89-26.2-3.17s-16.67-4.77-23.42-7.47l-.76-1.77c5.74,2.7,11.14,6.04,16.2,10,5.06,3.97,9.15,8.52,12.28,13.67,3.12,5.15,4.68,11.1,4.68,17.85,0,10.97-2.78,20.38-8.35,28.23s-13.46,13.84-23.67,17.98c-10.21,4.14-22.32,6.2-36.33,6.2ZM746.99,232.92v-6.08c0-7.77-2.49-13.17-7.47-16.2-4.98-3.04-11.77-4.56-20.38-4.56h-39.24c-7.6,0-13.97-.59-19.12-1.77-5.15-1.18-9.24-2.87-12.28-5.06-3.04-2.2-5.23-4.77-6.58-7.72-1.35-2.96-2.03-6.12-2.03-9.49,0-6.75,2.19-11.86,6.58-15.32,4.39-3.46,10.29-5.78,17.72-6.96,7.42-1.18,15.61-1.43,24.56-.76l15.95,2.79c-10.63.34-18.53,1.23-23.67,2.66-5.15,1.44-7.72,4.26-7.72,8.48,0,2.53,1.01,4.52,3.04,5.95,2.03,1.44,4.89,2.15,8.61,2.15h41.27c11.31,0,20.97,1.22,28.99,3.67,8.01,2.45,14.13,6.58,18.36,12.41,4.22,5.82,6.33,13.8,6.33,23.92v11.9h-32.91ZM704.71,137.98c7.25,0,13.63-1.18,19.11-3.54,5.48-2.36,9.75-5.78,12.79-10.25,3.04-4.47,4.56-9.83,4.56-16.08s-1.52-11.9-4.56-16.46-7.26-8.06-12.66-10.51c-5.4-2.45-11.82-3.67-19.24-3.67s-13.67,1.23-19.24,3.67c-5.57,2.45-9.87,5.95-12.91,10.51s-4.56,10.04-4.56,16.46,1.52,11.61,4.56,16.08c3.04,4.47,7.3,7.89,12.79,10.25,5.48,2.37,11.94,3.54,19.37,3.54ZM849.52,0v28.86h-38.23V0h38.23ZM813.83,55.19h32.91v125.83h-32.91V55.19ZM1029.03,131.4c-.85,10.97-4.35,20.42-10.51,28.36-6.16,7.94-14.65,13.97-25.44,18.1-10.8,4.13-23.63,6.2-38.48,6.2s-29.41-2.49-41.65-7.47c-12.24-4.98-21.86-12.32-28.86-22.03-7.01-9.7-10.51-21.73-10.51-36.08s3.5-26.41,10.51-36.2c7-9.79,16.62-17.22,28.86-22.28,12.24-5.06,26.12-7.6,41.65-7.6s27.6,2.07,38.23,6.2c10.63,4.14,19.03,10.09,25.19,17.85,6.16,7.77,9.75,17.13,10.76,28.1h-30.13c-2.87-8.44-8.19-15.02-15.95-19.75-7.77-4.72-17.13-7.09-28.1-7.09-8.78,0-16.75,1.52-23.93,4.56-7.18,3.04-12.91,7.56-17.22,13.54-4.3,5.99-6.46,13.54-6.46,22.66s2.11,16.42,6.33,22.41c4.22,5.99,9.96,10.47,17.22,13.42,7.25,2.96,15.27,4.43,24.05,4.43,11.81,0,21.48-2.36,28.99-7.09,7.51-4.72,12.62-11.48,15.32-20.25h30.13Z"/>
    </clipPath>
    <linearGradient id="linear-gradient-2" x1="424.14" y1="417.35" x2="761.4" y2="-166.81" xlink:href="#linear-gradient"/>
  </defs>
  <g id="Layer_1-2" data-name="Layer 1">
    <g>
      <g class="cls-6">
        <rect class="cls-3" x="-22.09" y="204.57" width="1200.36" height="275.13"/>
      </g>
      <g class="cls-4">
        <rect class="cls-2" x="156.51" y="-12.29" width="872.51" height="275.13"/>
      </g>
      <g id="_9Zuu7S" data-name="9Zuu7S">
        <g>
          <path class="cls-5" d="M369.91,260.46c.55,1.08,1.45,3.46,2.17,4.29.85.98,3.37,1.65,4.4,2.62,0,.4-3.7,1.95-4.24,2.45-.74.68-1.76,3.45-2.34,4.47l-2.55-4.47-4.47-2.44,4.47-2.44,2.33-4.47h.23Z"/>
          <path class="cls-5" d="M384.57,280.73c.89.94,1.19,2.35.93,3.61l-4.71,14.1,9.04,12.51c1.05,2.22-.31,5.02-2.81,5.3l-15.49.05-8.67,12.31c-2.76,2.22-5.36,1.14-6.58-2.03-1.07-2.77-1.59-6.16-2.69-8.88-.09-.23.12-.39-.36-.31l-57.94,57.94c-4.16,3.64-8.99-1.52-5.33-5.56l57.94-57.94-10.59-3.47c-2.15-1.37-2.49-3.99-.86-5.94l12.55-9c.47-4.84-.71-10.16-.19-14.93.3-2.74,3.11-4.33,5.6-3.1l12.24,9.05,14.82-4.84c1.01-.07,2.41.39,3.1,1.12Z"/>
          <path class="cls-5" d="M322.97,270.44l2.72,5.1,5.44,3.17-5.2,2.96c-1.22,1.52-1.88,3.65-2.91,5.25-.14.22.02.41-.5.29l-2.86-5.42-5.31-3.08,5.44-3.17,2.7-4.96.47-.14Z"/>
          <path class="cls-5" d="M398.03,339.15c-.25.25-5.06-1.6-6.01-1.59s-5.57,1.91-6.01,1.59c.32-1.53,1.8-4.61,1.78-6.01-.03-1.54-1.61-4.05-1.55-5.78.34-.34,4.95,1.54,5.78,1.55,1.46.02,4.43-1.49,6.01-1.78.33.44-1.58,5.05-1.59,6.01s1.84,5.76,1.59,6.01Z"/>
          <path class="cls-5" d="M373.09,350.26c-.16.24-3.59,1.7-4.2,2.26s-2.22,4.25-2.49,4.32c-.46.12-.32-.22-.45-.45-.4-.7-1.67-3.48-1.99-3.8-.74-.74-3.45-1.69-4.47-2.33.95-1.2,3.18-1.58,4.2-2.49,1.2-1.07,1.52-3.46,2.83-4.54.51,1.04,1.47,3.53,2.17,4.3.36.39,4.64,2.4,4.41,2.73Z"/>
          <path class="cls-5" d="M400.3,294.03c.12.53-.07.36-.29.5-.66.43-1.6.6-2.2,1.19-.57.56-1.11,1.83-1.36,2.61-.3.22-1.49-2.51-1.65-2.66-.32-.33-1.92-.86-2.43-1.2l.14-.47c.49-.44,1.95-.83,2.29-1.18.37-.37,1.05-2.42,1.54-2.66.8,1.98,1.78,3.35,3.97,3.86Z"/>
        </g>
      </g>
    </g>
  </g>
</svg>